<?xml version="1.0" encoding="UTF-8" standalone="no"?>
<!-- Created with Inkscape (http://www.inkscape.org/) -->

<svg
   width="104.24298mm"
   height="146.24063mm"
   viewBox="0 0 104.24298 146.24063"
   version="1.1"
   id="svg1"
   xml:space="preserve"
   xmlns:xlink="http://www.w3.org/1999/xlink"
   xmlns="http://www.w3.org/2000/svg"
   xmlns:svg="http://www.w3.org/2000/svg"><defs
     id="defs1"><linearGradient
       id="b"><stop
         offset="0"
         style="stop-color:#699ad7;stop-opacity:1"
         id="stop1" /><stop
         offset=".225"
         style="stop-color:#7eb1dd;stop-opacity:1"
         id="stop2" /><stop
         offset="1"
         style="stop-color:#7ebae4;stop-opacity:1"
         id="stop3" /></linearGradient><linearGradient
       id="a"><stop
         offset="0"
         style="stop-color:#415e9a;stop-opacity:1"
         id="stop4" /><stop
         offset=".23"
         style="stop-color:#4a6baf;stop-opacity:1"
         id="stop5" /><stop
         offset="1"
         style="stop-color:#5277c3;stop-opacity:1"
         id="stop6" /></linearGradient><linearGradient
       xlink:href="#a"
       id="c"
       x1="218.039"
       x2="355.24899"
       y1="0"
       y2="232.686"
       gradientTransform="matrix(0.47800272,0.275975,-0.275975,0.47800272,217.33923,-80.267065)"
       gradientUnits="userSpaceOnUse" /><linearGradient
       xlink:href="#b"
       id="d"
       x1="0"
       x2="261.34"
       y1="0"
       y2="311.76999"
       gradientTransform="matrix(0.47800272,0.275975,-0.275975,0.47800272,202.47347,-80.547277)"
       gradientUnits="userSpaceOnUse" /><linearGradient
       xlink:href="#a"
       id="e"
       x1="218.039"
       x2="355.24899"
       y1="0"
       y2="232.686"
       gradientTransform="matrix(0.47800272,0.275975,-0.275975,0.47800272,217.33869,120.08697)"
       gradientUnits="userSpaceOnUse" /></defs><g
     id="layer1"
     transform="translate(-74.239522,-22.677855)"><g
       id="g19"
       transform="translate(24.032387)"><g
         id="g1"
         transform="matrix(0.11215988,0,0,0.11215988,107.75305,30.063473)"><path
           d="M 310.95,9.449 V 69.92 l -78.555,45.355 32.732,18.897 45.824,-26.456 v 52.913 l 32.732,18.898 V 28.346 Z"
           style="display:inline;fill:url(#c);fill-opacity:1;stroke:none;stroke-width:0;stroke-dasharray:none;stroke-opacity:1"
           transform="rotate(-30,197.67,361.695)"
           id="path6" /><path
           d="m 180.024,28.346 0.024,56.68 45.8,26.47 32.732,-18.898 -45.8,-26.47 V 9.435 Z"
           style="display:inline;fill:url(#d);fill-opacity:1;stroke:none;stroke-width:0;stroke-dasharray:none;stroke-opacity:1"
           transform="rotate(-30,197.67,361.695)"
           id="path7" /><path
           d="m 261.853,279.685 v -49.134 l 78.556,-45.354 -32.731,-18.898 -45.825,26.457 v -52.913 l -32.731,-18.898 v 177.74 z"
           style="display:inline;fill:#7eb5e0;fill-opacity:1;stroke:none;stroke-width:0;stroke-dasharray:none;stroke-opacity:1"
           transform="rotate(-30,197.67,361.695)"
           id="path8" /><path
           d="m 310.95,209.764 v 49.134 l -78.555,45.354 32.732,18.898 45.824,-26.457 v 52.913 l 32.732,18.898 V 190.866 Z"
           style="display:inline;fill:url(#e);fill-opacity:1;stroke:none;stroke-width:0;stroke-dasharray:none;stroke-opacity:1"
           transform="rotate(-30,197.67,361.695)"
           id="path9" /><path
           d="m 261.853,480 v -60.472 l 78.556,-45.355 -32.731,-18.897 -45.825,26.456 V 328.82 l -32.731,-18.898 v 151.181 z"
           style="display:inline;fill:#7eb5e0;fill-opacity:1;stroke:none;stroke-width:0;stroke-dasharray:none;stroke-opacity:1"
           transform="rotate(-30,197.67,361.695)"
           id="path10" /><path
           d="M 392.78,461.102 V 404.41 l -45.824,-26.456 -32.732,18.897 45.824,26.457 V 480 Z"
           style="display:inline;fill:#4f73bc;fill-opacity:1;stroke:none;stroke-width:0;stroke-dasharray:none;stroke-opacity:1"
           transform="rotate(-30,197.67,361.695)"
           id="path11" /></g><path
         style="fill:#4c6eb4;fill-opacity:1;stroke:none;stroke-width:0;stroke-linecap:butt;stroke-linejoin:miter;stroke-dasharray:none;stroke-opacity:1"
         d="M 68.813413,62.637883 C 54.974703,51.041944 55.398282,43.37463 59.629987,33.685917 63.861692,23.997204 75.367919,21.805145 85.060021,22.957059 c 9.692099,1.151914 21.077869,7.716297 24.455469,16.284378 3.3776,8.568081 -1.80959,15.202297 -8.30481,17.979314 -6.49522,2.777017 -10.19755,5.658859 -4.37843,10.386464 5.81913,4.727605 14.5121,5.748699 19.4743,0.61996 4.96221,-5.128739 5.69734,-8.481651 10.99107,-11.47506 5.29373,-2.993409 7.14986,-6.185715 9.44227,-3.873474 -0.52203,7.287763 -3.02872,15.096725 -7.76368,20.197255 -4.73496,5.10053 -13.73286,5.601128 -18.33001,6.443231 -4.59715,0.842103 -7.6005,0.884656 -2.05661,4.200217 5.54389,3.315561 13.84035,9.701375 19.58052,15.853305 -1.11954,3.747411 -6.11587,1.825441 -11.73103,1.255031 -5.61516,-0.57041 -15.20004,-4.554851 -22.2485,-8.131381 -5.690632,8.450631 -8.650481,18.748201 -16.145271,25.942981 -6.210255,-0.12971 -3.419548,-9.37269 -1.887431,-13.14124 0.932208,-2.83285 4.809249,-9.906401 0.312643,-10.477861 -2.691321,3.28931 -5.475771,7.063751 -10.266911,6.733541 -4.581636,0.32462 -9.261545,-0.29255 -13.658757,-1.51017 -4.158317,-4.046801 6.326442,-4.635071 11.033475,-8.096261 13.105023,-9.821076 19.073795,-17.913467 5.235085,-29.509406 z"
         id="path1" /><ellipse
         style="fill:#e2eef8;fill-opacity:1;stroke:none;stroke-width:0;stroke-linejoin:round;stroke-dasharray:none"
         id="path2"
         cx="91.598129"
         cy="34.696259"
         rx="3.8165889"
         ry="5.8983645" /><ellipse
         style="fill:#e2eef8;fill-opacity:1;stroke:none;stroke-width:0;stroke-linejoin:round;stroke-dasharray:none"
         id="ellipse2"
         cx="78.760513"
         cy="38.165886"
         rx="3.8165889"
         ry="5.8983645" /><circle
         style="fill:#4c6eb4;fill-opacity:1;stroke:none;stroke-width:0;stroke-linejoin:round;stroke-dasharray:none"
         id="path3"
         cx="79.949623"
         cy="37.371803"
         r="1.8592936" /><circle
         style="fill:#4c6eb4;fill-opacity:1;stroke:none;stroke-width:0;stroke-linejoin:round;stroke-dasharray:none"
         id="circle3"
         cx="92.592819"
         cy="34.025074"
         r="1.8592936" /><path
         d="m 58.69577,84.976063 2.134979,9.410636 -10.623613,9.831701 5.761005,1.78516 6.197185,-5.735 1.868139,8.23445 5.761038,1.78532 -5.337574,-23.527139 z"
         style="display:inline;fill:#7eb5e0;fill-opacity:1;stroke:none;stroke-width:0;stroke-dasharray:none;stroke-opacity:1"
         id="path4" /><path
         style="fill:#4c6eb4;fill-opacity:1;stroke:none;stroke-width:0.264583px;stroke-linecap:butt;stroke-linejoin:miter;stroke-opacity:1"
         d="m 52.089425,97.738701 c -0.341579,0.473456 -0.397554,0.16211 -0.47756,0.775122 -0.06605,1.002635 0.02157,2.903527 0.344779,3.862877 0.197124,0.49479 0.678773,0.85434 1.21185,0.89205 0.592671,0.0711 1.199399,0.009 1.781394,0.16648 1.317615,0.14445 3.149894,0.95489 3.080343,-0.94169 0.0013,-0.40097 -0.03487,-0.84473 -0.341351,-1.1406 -0.531108,-0.62147 -1.419898,-0.89315 -1.777932,-1.66852 -0.225724,-0.538313 -0.130461,-1.134537 -0.132198,-1.69994"
         id="path17" /></g><path
       d="m 100.08509,121.29259 v 13.73357 l -9.686022,-13.73357 h -1.918489 v 17.31318 h 2.012073 V 124.8722 l 9.686028,13.73357 h 1.91849 v -17.31318 z m 6.1298,2.4332 c 0.51471,0.14038 1.54414,0.14038 2.05886,0 v -1.89509 c -0.51472,-0.14038 -1.54415,-0.14038 -2.05886,0 z m 0,14.87998 h 2.05886 v -12.39998 l -2.05886,0.23396 z m 15.74564,-12.16602 h -2.48 l -2.94792,4.70264 -2.71396,-4.70264 h -2.52679 l 4.14113,6.08301 -4.3517,6.08301 h 2.38642 l 2.97131,-4.81961 2.99472,4.81961 h 2.50339 l -4.35169,-6.24678 z m 9.8264,-5.47471 c -4.3283,0 -7.95471,3.15849 -7.95471,8.98414 0,5.82565 3.62641,8.98414 7.95471,8.98414 4.32829,0 7.9547,-3.15849 7.9547,-8.98414 0,-5.82565 -3.62641,-8.98414 -7.9547,-8.98414 z m 0,16.19017 c -3.46264,0 -5.66188,-2.87773 -5.66188,-7.20603 0,-4.3283 2.19924,-7.20603 5.66188,-7.20603 3.46263,0 5.66188,2.87773 5.66188,7.20603 0,4.3283 -2.19925,7.20603 -5.66188,7.20603 z m 15.58186,-11.04301 c -1.8015,0 -2.97131,0.18717 -4.58565,0.58491 v 16.82187 l 2.05886,-0.23397 v -4.49207 c 0.6317,0.0936 1.31019,0.14038 2.08227,0.14038 4.14112,0 6.05961,-2.48 6.05961,-6.80829 0,-4.46868 -2.26943,-6.01283 -5.61509,-6.01283 z m -0.21056,11.18339 c -0.70189,0 -1.28679,-0.0468 -2.31623,-0.23397 v -9.17131 c 0.6551,-0.11698 1.21661,-0.14037 1.98868,-0.14037 2.71396,0 4.00075,1.35698 4.00075,4.77282 0,3.20528 -1.24,4.77283 -3.6732,4.77283 z m 12.00225,1.63773 c 2.47999,0 4.49207,-1.2166 4.49207,-3.60301 0,-2.08227 -1.38038,-2.94793 -3.43924,-3.83698 -1.52076,-0.65509 -2.36302,-1.16981 -2.36302,-2.22264 0,-1.00604 0.67849,-1.52075 1.94188,-1.52075 1.2634,0 2.17585,0.30415 2.97132,0.84226 l 0.67849,-1.45056 c -0.93585,-0.67849 -2.03547,-1.02944 -3.53282,-1.02944 -2.62038,0 -4.14113,1.33359 -4.14113,3.34566 0,1.89509 1.35698,2.78415 3.13509,3.53283 2.10566,0.86566 2.64377,1.35698 2.64377,2.52679 0,1.07622 -0.77208,1.77811 -2.24604,1.77811 -1.33358,0 -2.4332,-0.42113 -3.39245,-1.09962 l -0.86565,1.35697 c 1.02943,0.93585 2.36301,1.38038 4.11773,1.38038 z m 18.59999,-6.87848 h -2.31623 v -10.76225 h -1.8249 l -8.0249,11.62791 v 0.88905 l 7.74415,-0.0234 v 4.81961 h 2.10565 v -4.81961 h 2.08227 z m -4.42188,-7.53358 v 7.53358 h -5.10038 z"
       id="text17"
       style="font-size:23.3962px;line-height:1.25;font-family:'Route 159';-inkscape-font-specification:'Route 159, ';text-align:center;letter-spacing:0px;word-spacing:0px;text-anchor:middle;fill:#7eb5e0;stroke-width:0.584906"
       transform="scale(0.96886166,1.0321391)"
       aria-label="NixOps4&#10;" /><path
       d="m 95.269335,141.43225 v 13.73357 l -9.686027,-13.73357 h -1.918489 v 17.31319 h 2.012073 v -13.73357 l 9.686027,13.73357 h 1.918489 v -17.31319 z m 6.129795,2.4332 c 0.51471,0.14038 1.54414,0.14038 2.05886,0 v -1.89509 c -0.51472,-0.14038 -1.54415,-0.14038 -2.05886,0 z m 0,14.87999 h 2.05886 v -12.39999 l -2.05886,0.23396 z m 15.74564,-12.16603 h -2.48 l -2.94792,4.70264 -2.71396,-4.70264 h -2.52679 l 4.14113,6.08302 -4.3517,6.08301 h 2.38642 l 2.97131,-4.81962 2.99472,4.81962 h 2.50339 l -4.35169,-6.24679 z m 14.29507,-5.47471 c -4.3283,0 -7.95471,3.15849 -7.95471,8.98414 0,5.82566 3.62641,8.98414 7.95471,8.98414 4.3283,0 7.95471,-3.15848 7.95471,-8.98414 0,-5.82565 -3.62641,-8.98414 -7.95471,-8.98414 z m 0,16.19017 c -3.46264,0 -5.66188,-2.87773 -5.66188,-7.20603 0,-4.32829 2.19924,-7.20603 5.66188,-7.20603 3.46264,0 5.66188,2.87774 5.66188,7.20603 0,4.3283 -2.19924,7.20603 -5.66188,7.20603 z m 15.58187,-11.043 c -1.80151,0 -2.97132,0.18717 -4.58566,0.5849 v 16.82187 l 2.05887,-0.23396 v -4.49207 c 0.63169,0.0936 1.31018,0.14037 2.08226,0.14037 4.14113,0 6.05962,-2.47999 6.05962,-6.80829 0,-4.46867 -2.26944,-6.01282 -5.61509,-6.01282 z m -0.21057,11.18338 c -0.70188,0 -1.28679,-0.0468 -2.31622,-0.23396 v -9.17131 c 0.65509,-0.11698 1.2166,-0.14038 1.98867,-0.14038 2.71396,0 4.00075,1.35698 4.00075,4.77283 0,3.20527 -1.23999,4.77282 -3.6732,4.77282 z m 16.30715,-10.73886 v 9.45207 c -0.88905,0.84226 -1.87169,1.2166 -3.01811,1.2166 -1.8249,0 -2.66717,-0.88905 -2.66717,-3.36905 v -7.53358 l -2.05886,0.23396 v 6.83169 c 0,0.79548 0,1.35698 0.0468,1.8951 0.21057,2.55018 1.70792,3.57962 3.97736,3.57962 1.35698,0 2.71395,-0.44453 3.71999,-1.2868 v 1.02944 h 2.05887 v -12.28301 z m 9.14794,12.37659 c 2.47999,0 4.49207,-1.2166 4.49207,-3.60301 0,-2.08226 -1.38038,-2.94792 -3.43925,-3.83698 -1.52075,-0.65509 -2.36301,-1.16981 -2.36301,-2.22264 0,-1.00603 0.67849,-1.52075 1.94188,-1.52075 1.2634,0 2.17585,0.30415 2.97132,0.84226 l 0.67849,-1.45056 c -0.93585,-0.67849 -2.03547,-1.02943 -3.53283,-1.02943 -2.62037,0 -4.14112,1.33358 -4.14112,3.34565 0,1.8951 1.35698,2.78415 3.13509,3.53283 2.10566,0.86566 2.64377,1.35698 2.64377,2.52679 0,1.07622 -0.77208,1.77811 -2.24604,1.77811 -1.33358,0 -2.4332,-0.42113 -3.39245,-1.09962 l -0.86566,1.35698 c 1.02944,0.93585 2.36302,1.38037 4.11774,1.38037 z"
       id="text19"
       style="font-size:23.3962px;line-height:1.25;font-family:'Route 159';-inkscape-font-specification:'Route 159, ';text-align:center;letter-spacing:0px;word-spacing:0px;text-anchor:middle;stroke-width:0.584906"
       transform="scale(0.96886167,1.0321391)"
       aria-label="Nix Opus" /></g></svg>
