<?xml version="1.0" encoding="UTF-8" standalone="no"?>
<!-- Created with Inkscape (http://www.inkscape.org/) -->

<svg
   width="146.965mm"
   height="146.965mm"
   viewBox="0 0 146.96499 146.965"
   version="1.1"
   id="svg1"
   xml:space="preserve"
   inkscape:version="1.4.3 (0d15f75042, 2025-12-25)"
   sodipodi:docname="logo.svg"
   xmlns:inkscape="http://www.inkscape.org/namespaces/inkscape"
   xmlns:sodipodi="http://sodipodi.sourceforge.net/DTD/sodipodi-0.dtd"
   xmlns:xlink="http://www.w3.org/1999/xlink"
   xmlns="http://www.w3.org/2000/svg"
   xmlns:svg="http://www.w3.org/2000/svg"><sodipodi:namedview
     id="namedview1"
     pagecolor="#ffffff"
     bordercolor="#666666"
     borderopacity="1.0"
     inkscape:showpageshadow="2"
     inkscape:pageopacity="0.0"
     inkscape:pagecheckerboard="true"
     inkscape:deskcolor="#d1d1d1"
     inkscape:document-units="mm"
     inkscape:zoom="1.1652854"
     inkscape:cx="149.74872"
     inkscape:cy="328.67485"
     inkscape:window-width="2021"
     inkscape:window-height="1065"
     inkscape:window-x="0"
     inkscape:window-y="0"
     inkscape:window-maximized="1"
     inkscape:current-layer="layer1" /><defs
     id="defs1"><linearGradient
       id="b"><stop
         offset="0"
         style="stop-color:#699ad7;stop-opacity:1"
         id="stop1" /><stop
         offset=".225"
         style="stop-color:#7eb1dd;stop-opacity:1"
         id="stop2" /><stop
         offset="1"
         style="stop-color:#7ebae4;stop-opacity:1"
         id="stop3" /></linearGradient><linearGradient
       id="a"><stop
         offset="0"
         style="stop-color:#415e9a;stop-opacity:1"
         id="stop4" /><stop
         offset=".23"
         style="stop-color:#4a6baf;stop-opacity:1"
         id="stop5" /><stop
         offset="1"
         style="stop-color:#5277c3;stop-opacity:1"
         id="stop6" /></linearGradient><linearGradient
       xlink:href="#a"
       id="c"
       x1="218.039"
       x2="355.24899"
       y1="0"
       y2="232.686"
       gradientTransform="matrix(0.47800272,0.275975,-0.275975,0.47800272,217.33923,-80.267065)"
       gradientUnits="userSpaceOnUse" /><linearGradient
       xlink:href="#b"
       id="d"
       x1="0"
       x2="261.34"
       y1="0"
       y2="311.76999"
       gradientTransform="matrix(0.47800272,0.275975,-0.275975,0.47800272,202.47347,-80.547277)"
       gradientUnits="userSpaceOnUse" /><linearGradient
       xlink:href="#a"
       id="e"
       x1="218.039"
       x2="355.24899"
       y1="0"
       y2="232.686"
       gradientTransform="matrix(0.47800272,0.275975,-0.275975,0.47800272,217.33869,120.08697)"
       gradientUnits="userSpaceOnUse" /></defs><g
     inkscape:label="Layer 1"
     inkscape:groupmode="layer"
     id="layer1"
     transform="translate(-52.878512,-22.677855)"><g
       id="g19"
       transform="translate(24.032387)"><g
         id="g1"
         transform="matrix(0.11215988,0,0,0.11215988,107.75305,30.063473)"><path
           d="M 310.95,9.449 V 69.92 l -78.555,45.355 32.732,18.897 45.824,-26.456 v 52.913 l 32.732,18.898 V 28.346 Z"
           style="display:inline;fill:url(#c);fill-opacity:1;stroke:none;stroke-width:0;stroke-dasharray:none;stroke-opacity:1"
           transform="rotate(-30,197.67,361.695)"
           id="path6" /><path
           d="m 180.024,28.346 0.024,56.68 45.8,26.47 32.732,-18.898 -45.8,-26.47 V 9.435 Z"
           style="display:inline;fill:url(#d);fill-opacity:1;stroke:none;stroke-width:0;stroke-dasharray:none;stroke-opacity:1"
           transform="rotate(-30,197.67,361.695)"
           id="path7" /><path
           d="m 261.853,279.685 v -49.134 l 78.556,-45.354 -32.731,-18.898 -45.825,26.457 v -52.913 l -32.731,-18.898 v 177.74 z"
           style="display:inline;fill:#7eb5e0;fill-opacity:1;stroke:none;stroke-width:0;stroke-dasharray:none;stroke-opacity:1"
           transform="rotate(-30,197.67,361.695)"
           id="path8" /><path
           d="m 310.95,209.764 v 49.134 l -78.555,45.354 32.732,18.898 45.824,-26.457 v 52.913 l 32.732,18.898 V 190.866 Z"
           style="display:inline;fill:url(#e);fill-opacity:1;stroke:none;stroke-width:0;stroke-dasharray:none;stroke-opacity:1"
           transform="rotate(-30,197.67,361.695)"
           id="path9" /><path
           d="m 261.853,480 v -60.472 l 78.556,-45.355 -32.731,-18.897 -45.825,26.456 V 328.82 l -32.731,-18.898 v 151.181 z"
           style="display:inline;fill:#7eb5e0;fill-opacity:1;stroke:none;stroke-width:0;stroke-dasharray:none;stroke-opacity:1"
           transform="rotate(-30,197.67,361.695)"
           id="path10" /><path
           d="M 392.78,461.102 V 404.41 l -45.824,-26.456 -32.732,18.897 45.824,26.457 V 480 Z"
           style="display:inline;fill:#4f73bc;fill-opacity:1;stroke:none;stroke-width:0;stroke-dasharray:none;stroke-opacity:1"
           transform="rotate(-30,197.67,361.695)"
           id="path11" /></g><path
         style="fill:#4c6eb4;fill-opacity:1;stroke:none;stroke-width:0;stroke-linecap:butt;stroke-linejoin:miter;stroke-dasharray:none;stroke-opacity:1"
         d="M 68.813413,62.637883 C 54.974703,51.041944 55.398282,43.37463 59.629987,33.685917 63.861692,23.997204 75.367919,21.805145 85.060021,22.957059 c 9.692099,1.151914 21.077869,7.716297 24.455469,16.284378 3.3776,8.568081 -1.80959,15.202297 -8.30481,17.979314 -6.49522,2.777017 -10.19755,5.658859 -4.37843,10.386464 5.81913,4.727605 14.5121,5.748699 19.4743,0.61996 4.96221,-5.128739 5.69734,-8.481651 10.99107,-11.47506 5.29373,-2.993409 7.14986,-6.185715 9.44227,-3.873474 -0.52203,7.287763 -3.02872,15.096725 -7.76368,20.197255 -4.73496,5.10053 -13.73286,5.601128 -18.33001,6.443231 -4.59715,0.842103 -7.6005,0.884656 -2.05661,4.200217 5.54389,3.315561 13.84035,9.701375 19.58052,15.853305 -1.11954,3.747411 -6.11587,1.825441 -11.73103,1.255031 -5.61516,-0.57041 -15.20004,-4.554851 -22.2485,-8.131381 -5.690632,8.450631 -8.650481,18.748201 -16.145271,25.942981 -6.210255,-0.12971 -3.419548,-9.37269 -1.887431,-13.14124 0.932208,-2.83285 4.809249,-9.906401 0.312643,-10.477861 -2.691321,3.28931 -5.475771,7.063751 -10.266911,6.733541 -4.581636,0.32462 -9.261545,-0.29255 -13.658757,-1.51017 -4.158317,-4.046801 6.326442,-4.635071 11.033475,-8.096261 13.105023,-9.821076 19.073795,-17.913467 5.235085,-29.509406 z"
         id="path1"
         sodipodi:nodetypes="zzzzzzzzczzzczcccccccz" /><ellipse
         style="fill:#e2eef8;fill-opacity:1;stroke:none;stroke-width:0;stroke-linejoin:round;stroke-dasharray:none"
         id="path2"
         cx="91.598129"
         cy="34.696259"
         rx="3.8165889"
         ry="5.8983645" /><ellipse
         style="fill:#e2eef8;fill-opacity:1;stroke:none;stroke-width:0;stroke-linejoin:round;stroke-dasharray:none"
         id="ellipse2"
         cx="78.760513"
         cy="38.165886"
         rx="3.8165889"
         ry="5.8983645" /><circle
         style="fill:#4c6eb4;fill-opacity:1;stroke:none;stroke-width:0;stroke-linejoin:round;stroke-dasharray:none"
         id="path3"
         cx="79.949623"
         cy="37.371803"
         r="1.8592936" /><circle
         style="fill:#4c6eb4;fill-opacity:1;stroke:none;stroke-width:0;stroke-linejoin:round;stroke-dasharray:none"
         id="circle3"
         cx="92.592819"
         cy="34.025074"
         r="1.8592936" /><path
         d="m 58.69577,84.976063 2.134979,9.410636 -10.623613,9.831701 5.761005,1.78516 6.197185,-5.735 1.868139,8.23445 5.761038,1.78532 -5.337574,-23.527139 z"
         style="display:inline;fill:#7eb5e0;fill-opacity:1;stroke:none;stroke-width:0;stroke-dasharray:none;stroke-opacity:1"
         id="path4" /><path
         style="fill:#4c6eb4;fill-opacity:1;stroke:none;stroke-width:0.264583px;stroke-linecap:butt;stroke-linejoin:miter;stroke-opacity:1"
         d="m 52.089425,97.738701 c -0.341579,0.473456 -0.397554,0.16211 -0.47756,0.775122 -0.06605,1.002635 0.02157,2.903527 0.344779,3.862877 0.197124,0.49479 0.678773,0.85434 1.21185,0.89205 0.592671,0.0711 1.199399,0.009 1.781394,0.16648 1.317615,0.14445 3.149894,0.95489 3.080343,-0.94169 0.0013,-0.40097 -0.03487,-0.84473 -0.341351,-1.1406 -0.531108,-0.62147 -1.419898,-0.89315 -1.777932,-1.66852 -0.225724,-0.538313 -0.130461,-1.134537 -0.132198,-1.69994"
         id="path17"
         sodipodi:nodetypes="ccccccccc" /></g><text
       xml:space="preserve"
       style="font-size:23.3962px;line-height:1.25;font-family:'Route 159';text-align:center;letter-spacing:0px;word-spacing:0px;text-anchor:middle;fill:#7eb5e0;fill-opacity:1;stroke-width:0.584906;-inkscape-font-specification:'Route 159, ';font-weight:normal;font-style:normal;font-stretch:normal;font-variant:normal"
       x="132.36015"
       y="138.60577"
       id="text17"
       transform="scale(0.96886166,1.0321391)"><tspan
         sodipodi:role="line"
         id="tspan17"
         style="fill:#7eb5e0;fill-opacity:1;stroke-width:0.584906;-inkscape-font-specification:'Route 159, ';font-family:'Route 159';font-weight:normal;font-style:normal;font-stretch:normal;font-variant:normal"
         x="132.36015"
         y="138.60577">NixOps4</tspan><tspan
         sodipodi:role="line"
         style="fill:#7eb5e0;fill-opacity:1;stroke-width:0.584906;-inkscape-font-specification:'Route 159, ';font-family:'Route 159';font-weight:normal;font-style:normal;font-stretch:normal;font-variant:normal"
         x="132.36015"
         y="167.85103"
         id="tspan18" /></text><text
       xml:space="preserve"
       style="font-size:23.3962px;line-height:1.25;font-family:'Route 159';text-align:center;letter-spacing:0px;word-spacing:0px;text-anchor:middle;stroke-width:0.584906;-inkscape-font-specification:'Route 159, ';font-weight:normal;font-style:normal;font-stretch:normal;font-variant:normal"
       x="129.81383"
       y="158.74544"
       id="text19"
       transform="scale(0.96886167,1.0321391)"><tspan
         sodipodi:role="line"
         id="tspan19"
         style="stroke-width:0.584906;-inkscape-font-specification:'Route 159, ';font-family:'Route 159';font-weight:normal;font-style:normal;font-stretch:normal;font-variant:normal"
         x="129.81383"
         y="158.74544">Nix Opus</tspan></text></g></svg>
